<svg width="16" height="20" xmlns="http://www.w3.org/2000/svg" data-name="Layer 1">
 <g id="Layer_1">
  <title>Layer 1</title>
  <path stroke="null" style="vector-effect: non-scaling-stroke;" id="svg_1" fill-rule="evenodd" d="m13.16074,1.00001a3.77913,4.56477 0 1 1 -2.67457,1.33771a3.76308,4.54538 0 0 1 2.67457,-1.33771zm-13.61946,1.91932a0.54133,0.65387 0 0 1 0,-1.30774l0.79522,0a2.52428,3.04905 0 0 1 1.29716,0.41242c0.71789,0.54989 0.84483,1.33418 1.02139,2.21893l6.08454,0a4.52328,5.46362 0 0 0 -0.13132,1.29188l-5.64097,0l1.21983,5.54469l8.64822,0l0,-0.03172c0.10506,0.00881 0.21011,0.0141 0.31663,0.0141a4.60937,5.56761 0 0 0 0.79668,-0.0846l-0.18823,0.91295a0.5282,0.63801 0 0 1 -0.52091,0.49701l-8.76495,0c0.1926,0.86008 0.38375,1.32361 0.64493,1.54039c0.31517,0.24674 0.8638,0.26437 1.78159,0.24674l6.20711,0a0.5355,0.64682 0 1 1 0,1.29188l-6.19398,0c-1.13666,0.01586 -1.83558,-0.01586 -2.3988,-0.46353s-0.87547,-1.2584 -1.17751,-2.69832l0,0l-1.83704,-8.39283c0,-0.01586 0,-0.01586 -0.01313,-0.03349a0.94989,1.14736 0 0 0 -0.41147,-0.74376a1.38763,1.6761 0 0 0 -0.75583,-0.21502l-0.77917,0zm8.34764,3.97963a0.37937,0.45824 0 0 1 0.74561,0l0,2.49564a0.37937,0.45824 0 0 1 -0.74561,0l0,-2.49564zm-2.23246,0a0.37937,0.45824 0 0 1 0.74561,0l0,2.49564a0.37937,0.45824 0 0 1 -0.74561,0l0,-2.49564zm5.84963,9.32869a1.31321,1.58621 0 1 1 -1.31321,1.58621a1.31321,1.58621 0 0 1 1.31321,-1.58621zm-5.77083,0a1.31321,1.58621 0 1 1 -1.31321,1.58621a1.31321,1.58621 0 0 1 1.31321,-1.58621zm9.35006,-11.08762l0,0.84774a0.30496,0.36835 0 0 1 -0.30204,0.36483l-0.97178,0l0,1.16851a0.3035,0.36659 0 0 1 -0.30204,0.36483l-0.70184,0a0.30204,0.36483 0 0 1 -0.30204,-0.36483l0,-1.16851l-0.97178,0a0.3035,0.36659 0 0 1 -0.30204,-0.36483l0,-0.84774a0.30204,0.36483 0 0 1 0.30204,-0.36483l0.97178,0l0,-1.1738a0.30204,0.36483 0 0 1 0.30204,-0.36483l0.70184,0a0.3035,0.36659 0 0 1 0.30204,0.36483l0,1.1738l0.97178,0a0.3035,0.36659 0 0 1 0.30204,0.36483z" class="cls-1"/>
 </g>
</svg>