<?xml version="1.0" encoding="utf-8"?>
<!-- Generator: Adobe Illustrator 16.0.0, SVG Export Plug-In . SVG Version: 6.00 Build 0)  -->
<!DOCTYPE svg PUBLIC "-//W3C//DTD SVG 1.1//EN" "http://www.w3.org/Graphics/SVG/1.1/DTD/svg11.dtd">
<svg version="1.1" id="Layer_1" xmlns="http://www.w3.org/2000/svg" xmlns:xlink="http://www.w3.org/1999/xlink" x="0px" y="0px"
	 width="18px" height="18px" viewBox="0 0 128 128" enable-background="new 0 0 128 128" xml:space="preserve">
<g>
	<g>
		<path fill="#282D33" d="M110.561,30.131h-4.991v-3.997h4.991c1.013,0,1.837-0.804,1.837-1.792V11.42
			c0-0.987-0.824-1.79-1.837-1.79h-4.991V5.634h4.991c3.216,0,5.833,2.596,5.833,5.786v12.922
			C116.394,27.534,113.776,30.131,110.561,30.131z"/>
	</g>
	<g>
		<path fill="#282D33" d="M110.561,89.056h-4.991v-3.997h4.991c1.013,0,1.837-0.802,1.837-1.787V70.344
			c0-0.984-0.824-1.785-1.837-1.785h-4.991v-3.997h4.991c3.216,0,5.833,2.594,5.833,5.782v12.928
			C116.394,86.461,113.776,89.056,110.561,89.056z"/>
	</g>
	<g>
		<path fill="#282D33" d="M110.561,59.592h-4.991v-3.996h4.991c1.013,0,1.837-0.804,1.837-1.792V40.882
			c0-0.987-0.824-1.789-1.837-1.789h-4.991v-3.997h4.991c3.216,0,5.833,2.595,5.833,5.786v12.922
			C116.394,56.996,113.776,59.592,110.561,59.592z"/>
	</g>
	<g>
		<polygon fill="#282D33" points="45.196,128 31.923,121.915 18.648,128 18.648,116.003 22.645,116.003 22.645,121.771 
			31.923,117.519 41.2,121.771 41.2,116.003 45.196,116.003 		"/>
	</g>
	<g>
		<path fill="#282D33" d="M95.347,110.052h-83.74V0h83.74c3.217,0,5.833,2.596,5.833,5.787v98.475
			C101.18,107.454,98.563,110.052,95.347,110.052z M15.604,106.056h79.743c1.013,0,1.837-0.806,1.837-1.794V5.787
			c0-0.987-0.824-1.79-1.837-1.79H15.604V106.056z"/>
	</g>
	<g>
		<g>
			<path fill="#282D33" d="M56.972,74.348c-13.732,0-24.904-11.042-24.904-24.615c0-13.575,11.172-24.618,24.904-24.618
				c7.484,0,14.506,3.285,19.264,9.013l-3.076,2.553c-3.994-4.811-9.895-7.57-16.188-7.57c-11.528,0-20.908,9.251-20.908,20.622
				c0,11.369,9.38,20.619,20.908,20.619c4.598,0,8.959-1.443,12.614-4.173l2.393,3.202C67.627,72.631,62.438,74.348,56.972,74.348z"
				/>
		</g>
		<g>
			<path fill="#282D33" d="M52.839,61.763C52.838,61.763,52.838,61.763,52.839,61.763c-0.972,0-2-0.152-3.057-0.453
				c-3.175-0.901-5.574-3.531-6.415-7.036c-1.133-4.717,0.634-9.94,4.611-13.631c3.482-3.229,8.235-3.908,11.609-3.908
				c2.837,0,4.957,0.47,5.046,0.49l2.107,0.475l-0.638,2.064c-0.169,0.547-4.149,13.427-4.857,15.436
				C60.554,57.173,58.346,61.763,52.839,61.763z M59.588,40.733c-2.659,0-6.36,0.493-8.892,2.84c-3.491,3.24-4.067,7.17-3.443,9.769
				c0.507,2.112,1.827,3.615,3.621,4.125c0.702,0.2,1.362,0.301,1.964,0.301h0.001c2.703,0,4.014-2.117,4.638-3.893
				c0.509-1.444,2.911-9.166,4.116-13.052C61.005,40.771,60.324,40.733,59.588,40.733z"/>
		</g>
		<g>
			<path fill="#282D33" d="M66.625,61.542c-2.13,0-4.097-0.724-5.665-2.131c-3.239-2.911-0.98-12.844,0.654-18.506l3.841,1.108
				c-1.846,6.395-2.702,13.283-1.798,14.452c1.646,1.474,3.715,1.185,5.155,0.681c3.236-1.135,6.938-4.837,7.749-9.717
				c0.585-3.518-0.126-8.82-6.835-14.103l2.472-3.14c8.68,6.833,8.93,14.147,8.306,17.898c-0.957,5.75-5.221,11.027-10.368,12.832
				C68.943,61.335,67.76,61.542,66.625,61.542z"/>
		</g>
	</g>
</g>
</svg>
