<?xml version="1.0" encoding="UTF-8" standalone="no"?>
<svg
   width="24"
   height="24"
   viewBox="0 0 24 24"
   fill="none"
   version="1.1"
   id="svg11246"
   sodipodi:docname="Mn-purchase3.svg"
   inkscape:version="1.2.1 (9c6d41e410, 2022-07-14)"
   xmlns:inkscape="http://www.inkscape.org/namespaces/inkscape"
   xmlns:sodipodi="http://sodipodi.sourceforge.net/DTD/sodipodi-0.dtd"
   xmlns="http://www.w3.org/2000/svg"
   xmlns:svg="http://www.w3.org/2000/svg">
  <defs
     id="defs11250" />
  <sodipodi:namedview
     id="namedview11248"
     pagecolor="#ffffff"
     bordercolor="#000000"
     borderopacity="0.25"
     inkscape:showpageshadow="2"
     inkscape:pageopacity="0.0"
     inkscape:pagecheckerboard="0"
     inkscape:deskcolor="#d1d1d1"
     showgrid="false"
     inkscape:zoom="34.875"
     inkscape:cx="11.985663"
     inkscape:cy="12.014337"
     inkscape:window-width="1920"
     inkscape:window-height="1017"
     inkscape:window-x="-8"
     inkscape:window-y="-8"
     inkscape:window-maximized="1"
     inkscape:current-layer="svg11246" />
  <path
     d="m 10.482884,21.775091 c 0.816066,0 1.47762,-0.734788 1.47762,-1.641129 0,-0.906341 -0.661554,-1.641129 -1.47762,-1.641129 -0.8160647,0 -1.4776176,0.734788 -1.4776176,1.641129 0,0.906341 0.6615529,1.641129 1.4776176,1.641129 z"
     fill="#637381"
     id="path2"
     style="stroke-width:1.3842" />
  <path
     d="m 17.378439,21.775091 c 0.816038,0 1.477618,-0.734788 1.477618,-1.641129 0,-0.906341 -0.66158,-1.641129 -1.477618,-1.641129 -0.81604,0 -1.477619,0.734788 -1.477619,1.641129 0,0.906341 0.661579,1.641129 1.477619,1.641129 z"
     fill="#637381"
     id="path4"
     style="stroke-width:1.3842" />
  <path
     d="m 13.103977,8.9610656 h 2.050318 V 6.4509379 h 3.065169 V 4.7719192 H 15.154295 V 2.2701845 H 13.103977 V 4.7719192 H 10.03881 v 1.6790187 h 3.065167 z"
     fill="#637381"
     id="path6"
     style="stroke-width:1.23693" />
  <path
     d="m 9.9903454,17.398747 h 7.8806326 c 0.198461,-5.84e-4 0.392062,-0.06784 0.555585,-0.19285 0.163391,-0.124873 0.289087,-0.301676 0.360538,-0.507365 L 21.574875,8.6460601 H 19.466806 L 17.191273,15.210576 H 10.650348 L 6.2273436,3.4272702 C 6.0773752,3.0280017 5.8242229,2.6870555 5.4998562,2.4475382 5.1754762,2.2080062 4.7944609,2.0806547 4.4049474,2.0815445 h -2.295234 v 2.188172 h 2.295234 L 9.0840728,16.720414 c 0.073894,0.199853 0.199393,0.370822 0.3606703,0.49161 0.1612771,0.12064 0.3511213,0.185701 0.5456023,0.186723 z"
     fill="#637381"
     id="path8"
     style="stroke-width:1.3842" />
</svg>
